HIERARCHY
ROOT Hips
{
	OFFSET 55.126202 -8.859924 85.761299
	CHANNELS 6 Xposition Yposition Zposition Xrotation Yrotation Zrotation
	JOINT spine
	{
		OFFSET 0.000000 -0.367607 6.392601
		CHANNELS 3 Xrotation Yrotation Zrotation
		JOINT spine1
		{
			OFFSET 0.000000 -0.000001 9.176109
			CHANNELS 3 Xrotation Yrotation Zrotation
			JOINT spine2
			{
				OFFSET 0.000000 -0.000002 8.792381
				CHANNELS 3 Xrotation Yrotation Zrotation
				JOINT Neck
				{
					OFFSET 0.000000 -1.076243 22.573700
					CHANNELS 3 Xrotation Yrotation Zrotation
					JOINT Head
					{
						OFFSET 0.000000 -0.000001 6.820114
						CHANNELS 3 Xrotation Yrotation Zrotation
						End Site
						{
							OFFSET 0.000000 5.444268 16.508499
						}
					}
				}
				JOINT RightShoulder
				{
					OFFSET -3.702209 0.515507 9.495087
					CHANNELS 3 Xrotation Yrotation Zrotation
					JOINT RightArm
					{
						OFFSET 0.000000 -0.000003 12.453705
						CHANNELS 3 Xrotation Yrotation Zrotation
						JOINT RightArmRoll
						{
							OFFSET 0.000000 -0.000001 6.286865
							CHANNELS 3 Xrotation Yrotation Zrotation
							JOINT RightForeArm
							{
								OFFSET 0.000000 -0.000003 18.311401
								CHANNELS 3 Xrotation Yrotation Zrotation
								JOINT RightForeArmRoll
								{
									OFFSET 0.000000 -0.000001 7.054825
									CHANNELS 3 Xrotation Yrotation Zrotation
									JOINT RightHand
									{
										OFFSET 0.000000 -0.000002 14.157501
										CHANNELS 3 Xrotation Yrotation Zrotation
										End Site
										{
											OFFSET 0.000000 0.000000 0.100006
										}
									}
								}
							}
						}
					}
				}
				JOINT LeftShoulder
				{
					OFFSET 3.702209 0.515507 9.495087
					CHANNELS 3 Xrotation Yrotation Zrotation
					JOINT LeftArm
					{
						OFFSET 0.000000 -0.000003 12.453705
						CHANNELS 3 Xrotation Yrotation Zrotation
						JOINT LeftArmRoll
						{
							OFFSET 0.000000 -0.000001 6.286865
							CHANNELS 3 Xrotation Yrotation Zrotation
							JOINT LeftForeArm
							{
								OFFSET 0.000000 -0.000003 18.311401
								CHANNELS 3 Xrotation Yrotation Zrotation
								JOINT LeftForeArmRoll
								{
									OFFSET 0.000000 -0.000001 7.054825
									CHANNELS 3 Xrotation Yrotation Zrotation
									JOINT LeftHand
									{
										OFFSET 0.000000 -0.000002 14.157501
										CHANNELS 3 Xrotation Yrotation Zrotation
										End Site
										{
											OFFSET 0.000000 0.000000 0.100006
										}
									}
								}
							}
						}
					}
				}
			}
		}
	}
	JOINT RightUpLeg
	{
		OFFSET -5.666161 0.871611 -1.039032
		CHANNELS 3 Xrotation Yrotation Zrotation
		JOINT RightUpLegRoll
		{
			OFFSET 0.000000 -0.000003 16.600502
			CHANNELS 3 Xrotation Yrotation Zrotation
			JOINT RightLeg
			{
				OFFSET 0.000000 0.000003 -20.557198
				CHANNELS 3 Xrotation Yrotation Zrotation
				JOINT RightLegRoll
				{
					OFFSET 0.000000 -0.000003 20.624397
					CHANNELS 3 Xrotation Yrotation Zrotation
					JOINT RightFoot
					{
						OFFSET 0.000000 -0.000003 17.166397
						CHANNELS 3 Xrotation Yrotation Zrotation
						JOINT RightToeBase
						{
							OFFSET 0.000000 -0.000002 14.350204
							CHANNELS 3 Xrotation Yrotation Zrotation
							End Site
							{
								OFFSET 0.006081 0.801060 6.949707
							}
						}
					}
				}
			}
		}
	}
	JOINT LeftUpLeg
	{
		OFFSET 5.666161 0.871611 -1.039032
		CHANNELS 3 Xrotation Yrotation Zrotation
		JOINT LeftUpLegRoll
		{
			OFFSET 0.000000 -0.000003 16.600601
			CHANNELS 3 Xrotation Yrotation Zrotation
			JOINT LeftLeg
			{
				OFFSET 0.000000 -0.000003 20.557098
				CHANNELS 3 Xrotation Yrotation Zrotation
				JOINT LeftLegRoll
				{
					OFFSET 0.000000 -0.000003 20.815102
					CHANNELS 3 Xrotation Yrotation Zrotation
					JOINT LeftFoot
					{
						OFFSET 0.000000 -0.000003 16.975708
						CHANNELS 3 Xrotation Yrotation Zrotation
						JOINT LeftToeBase
						{
							OFFSET 0.000000 -0.000002 14.350204
							CHANNELS 3 Xrotation Yrotation Zrotation
							End Site
							{
								OFFSET -0.027260 0.801060 6.949707
							}
						}
					}
				}
			}
		}
	}
}
MOTION
Frames: 12
Frame Time: 0.041667
54.975395 -9.030835 85.663811 -3.596675 1.821099 1.122168 -1.003497 0.201714 -0.170679 2.016131 0.408461 -0.335866 3.661200 0.404388 -0.340483 7.677852 -6.956722 -1.443679 4.016677 3.537352 -0.883030 -6.739087 -64.497763 -8.368832 -47.086204 -115.075628 -42.346241 0.000001 -0.000001 -0.000003 5.345096 -15.006335 0.433023 -0.000007 0.000003 -3.008789 -5.000220 -7.998791 0.000162 4.669414 52.238830 -6.553231 -33.207348 117.785328 30.061394 0.000000 0.000004 0.000008 5.031411 9.607683 0.151692 -0.000004 -0.000006 3.002319 -5.000209 7.998831 -0.000139 1.956877 -178.282991 -0.161698 -179.999991 0.000005 -1.049003 174.759256 -3.490387 -0.513952 0.000003 -0.000002 0.040263 68.819306 6.857217 2.230379 25.456858 -7.355622 -0.000003 1.493287 174.054011 -0.490378 -0.000005 -0.000005 -1.030740 -8.177470 1.377693 0.678121 0.000002 -0.000004 -0.073923 70.345293 -6.363968 -3.450978 25.457157 7.355620 -0.000414 
54.977795 -9.033352 85.648705 -3.596076 1.823535 1.120962 -1.003737 0.201715 -0.170526 2.014531 0.407769 -0.336060 3.659600 0.403696 -0.340498 7.690357 -6.960544 -1.445975 4.004566 3.542194 -0.885789 -6.738009 -64.501335 -8.367876 -47.111643 -115.063566 -42.337860 -0.000000 -0.000001 -0.000003 5.315269 -14.990594 0.427340 -0.000008 0.000003 -3.008789 -5.000220 -7.998791 0.000162 4.681887 52.235934 -6.568793 -33.199326 117.779809 30.035166 -0.000002 0.000005 0.000007 5.018752 9.595552 0.153695 -0.000005 -0.000006 3.002319 -5.000209 7.998832 -0.000140 1.958370 -178.288004 -0.167045 -179.999991 0.000005 -1.049003 174.761332 -3.486412 -0.514458 0.000003 -0.000002 0.040263 68.820686 6.857230 2.230296 25.456860 -7.355622 -0.000003 1.495904 174.052003 -0.491356 -0.000005 -0.000005 -1.030740 -8.173373 1.376342 0.677069 0.000001 -0.000004 -0.073923 70.344965 -6.365248 -3.447522 25.457162 7.355619 -0.000414 
54.982597 -9.039432 85.654709 -3.595549 1.826041 1.119722 -1.003974 0.201710 -0.170385 2.012910 0.407030 -0.336287 3.657980 0.402958 -0.340532 7.703374 -6.964219 -1.448276 3.992078 3.546826 -0.888564 -6.736097 -64.504839 -8.365962 -47.136928 -115.051436 -42.329848 0.000002 -0.000001 -0.000003 5.285533 -14.975145 0.421749 -0.000007 0.000003 -3.008789 -5.000220 -7.998792 0.000162 4.694582 52.233127 -6.584622 -33.190744 117.774140 30.008983 -0.000000 0.000004 0.000008 5.006816 9.583986 0.155599 -0.000003 -0.000006 3.002321 -5.000212 7.998833 -0.000139 1.959899 -178.294001 -0.172457 -179.999991 0.000005 -1.049003 174.763367 -3.481444 -0.513879 0.000003 -0.000002 0.040263 68.821949 6.857239 2.230318 25.456863 -7.355623 -0.000003 1.498682 174.049025 -0.492334 -0.000005 -0.000005 -1.030740 -8.169028 1.374872 0.675946 0.000001 -0.000004 -0.073923 70.344535 -6.366564 -3.443973 25.457160 7.355622 -0.000414 
54.973595 -9.041574 85.665100 -3.595081 1.828597 1.118468 -1.004196 0.201703 -0.170252 2.011290 0.406258 -0.336538 3.656359 0.402185 -0.340581 7.716754 -6.967777 -1.450576 3.979321 3.551310 -0.891353 -6.733582 -64.508268 -8.363360 -47.160342 -115.039852 -42.320139 0.000000 -0.000001 -0.000003 5.255842 -14.959890 0.416227 -0.000010 0.000003 -3.008789 -5.000221 -7.998791 0.000162 4.707453 52.230306 -6.600652 -33.182831 117.767542 29.984032 0.000000 0.000004 0.000007 4.995395 9.572822 0.157430 -0.000005 -0.000006 3.002318 -5.000213 7.998833 -0.000138 1.961453 -178.299998 -0.177888 -179.999991 0.000005 -1.049003 174.765362 -3.477469 -0.514391 0.000003 -0.000002 0.040263 68.823322 6.857253 2.230336 25.456860 -7.355622 -0.000003 1.501582 174.047017 -0.493270 -0.000005 -0.000004 -1.030740 -8.164520 1.373333 0.674777 0.000001 -0.000004 -0.073923 70.343913 -6.367970 -3.440254 25.457162 7.355620 -0.000414 
54.970497 -9.043623 85.663094 -3.594650 1.831173 1.117206 -1.004426 0.201693 -0.170123 2.009670 0.405469 -0.336802 3.654739 0.401393 -0.340639 7.730344 -6.971283 -1.452865 3.966416 3.555705 -0.894145 -6.730716 -64.511608 -8.360343 -47.183794 -115.028281 -42.310672 -0.000002 -0.000000 -0.000002 5.226188 -14.944725 0.410751 -0.000010 0.000003 -3.008789 -5.000219 -7.998793 0.000162 4.720402 52.227595 -6.616774 -33.173863 117.761778 29.958104 -0.000001 0.000003 0.000008 4.984257 9.561891 0.159218 -0.000006 -0.000006 3.002319 -5.000211 7.998831 -0.000139 1.963017 -178.305995 -0.183332 -179.999991 0.000005 -1.049003 174.767356 -3.472502 -0.513814 0.000003 -0.000002 0.040263 68.824688 6.857232 2.230347 25.456860 -7.355622 -0.000003 1.504535 174.044039 -0.494221 -0.000005 -0.000005 -1.030740 -8.159924 1.371736 0.673578 0.000001 -0.000004 -0.073923 70.343292 -6.369342 -3.436528 25.457163 7.355619 -0.000414 
54.969498 -9.047900 85.649193 -3.594226 1.833758 1.115945 -1.004644 0.201683 -0.169996 2.008039 0.404674 -0.337069 3.653119 0.400596 -0.340698 7.743983 -6.974766 -1.455169 3.953483 3.560090 -0.896939 -6.727782 -64.515057 -8.357262 -47.207245 -115.016711 -42.301253 -0.000000 -0.000001 -0.000002 5.196548 -14.929651 0.405303 -0.000006 0.000003 -3.008789 -5.000220 -7.998792 0.000162 4.733368 52.224770 -6.632919 -33.164714 117.755958 29.932064 -0.000001 0.000003 0.000007 4.973194 9.550997 0.160994 -0.000003 -0.000006 3.002320 -5.000211 7.998832 -0.000140 1.964593 -178.310995 -0.188745 -179.999991 0.000005 -1.049003 174.769351 -3.467533 -0.514250 0.000003 -0.000002 0.040263 68.826061 6.857246 2.230264 25.456860 -7.355622 -0.000003 1.507520 174.041047 -0.495172 -0.000005 -0.000005 -1.030740 -8.155296 1.370138 0.672374 0.000001 -0.000004 -0.073923 70.342670 -6.370716 -3.432903 25.457162 7.355620 -0.000413 
54.974094 -9.052702 85.653603 -3.593779 1.836334 1.114680 -1.004866 0.201674 -0.169866 2.006409 0.403889 -0.337329 3.651488 0.399809 -0.340753 7.757514 -6.978292 -1.457460 3.940602 3.564515 -0.899727 -6.724988 -64.518404 -8.354331 -47.232138 -115.004389 -42.293351 0.000002 -0.000000 -0.000003 5.166895 -14.914478 0.399852 -0.000009 0.000003 -3.008789 -5.000216 -7.998793 0.000162 4.746283 52.221946 -6.649002 -33.155565 117.750139 29.905932 -0.000000 0.000005 0.000007 4.961992 9.540005 0.162783 -0.000001 -0.000006 3.002318 -5.000211 7.998833 -0.000138 1.966155 -178.316992 -0.194187 -179.999991 0.000005 -1.049003 174.771345 -3.463558 -0.513765 0.000003 -0.000002 0.040263 68.827427 6.857223 2.230375 25.456856 -7.355624 -0.000003 1.510459 174.039053 -0.496100 -0.000005 -0.000004 -1.030740 -8.150709 1.368550 0.671183 0.000001 -0.000004 -0.073923 70.342042 -6.372090 -3.429277 25.457163 7.355619 -0.000414 
54.979095 -9.054396 85.650497 -3.593291 1.838870 1.113432 -1.005093 0.201668 -0.169731 2.004800 0.403126 -0.337573 3.649878 0.399046 -0.340798 7.770792 -6.981888 -1.459750 3.927933 3.569049 -0.902504 -6.722681 -64.521935 -8.351960 -47.255811 -114.992901 -42.283802 -0.000001 -0.000001 -0.000003 5.137210 -14.899103 0.394377 -0.000008 0.000003 -3.008789 -5.000220 -7.998792 0.000162 4.759111 52.219231 -6.664978 -33.146785 117.744429 29.879834 -0.000001 0.000004 0.000007 4.950428 9.528720 0.164617 -0.000003 -0.000006 3.002319 -5.000213 7.998832 -0.000139 1.967701 -178.322989 -0.199614 -179.999991 0.000005 -1.049003 174.773367 -3.458591 -0.514185 0.000003 -0.000002 0.040263 68.828800 6.857238 2.230293 25.456858 -7.355622 -0.000004 1.513324 174.036061 -0.497069 -0.000005 -0.000005 -1.030740 -8.146252 1.367031 0.670028 0.000001 -0.000004 -0.073923 70.341427 -6.373496 -3.425556 25.457158 7.355620 -0.000413 
54.972195 -9.056983 85.651909 -3.592748 1.841356 1.112202 -1.005334 0.201665 -0.169586 2.003179 0.402402 -0.337791 3.648267 0.398321 -0.340827 7.783652 -6.985610 -1.462043 3.915554 3.573750 -0.905262 -6.720995 -64.525419 -8.350311 -47.281243 -114.980812 -42.275787 0.000000 -0.000001 -0.000003 5.107480 -14.883520 0.388862 -0.000006 0.000002 -3.008789 -5.000218 -7.998791 0.000162 4.771721 52.216318 -6.680703 -33.138370 117.738815 29.853644 -0.000001 0.000004 0.000008 4.938270 9.516996 0.166521 -0.000006 -0.000006 3.002320 -5.000210 7.998832 -0.000138 1.969218 -178.327988 -0.204984 -179.999991 0.000005 -1.049003 174.775388 -3.454616 -0.513699 0.000003 -0.000002 0.040263 68.830159 6.857217 2.230305 25.456860 -7.355622 -0.000003 1.516056 174.034081 -0.498030 -0.000005 -0.000004 -1.030740 -8.141988 1.365590 0.668927 0.000001 -0.000004 -0.073923 70.340997 -6.374811 -3.422008 25.457160 7.355620 -0.000413 
54.975494 -9.059647 85.664001 -3.592102 1.843773 1.110999 -1.005574 0.201668 -0.169429 2.001589 0.401730 -0.337973 3.646667 0.397648 -0.340834 7.795960 -6.989509 -1.464319 3.903593 3.578691 -0.907996 -6.720285 -64.529066 -8.349782 -47.306877 -114.968790 -42.267417 0.000000 -0.000001 -0.000003 5.077666 -14.867635 0.383283 -0.000008 0.000002 -3.008789 -5.000220 -7.998793 0.000162 4.784101 52.213415 -6.696156 -33.130512 117.733350 29.827364 -0.000001 0.000003 0.000007 4.925327 9.504633 0.168523 -0.000002 -0.000006 3.002319 -5.000211 7.998831 -0.000138 1.970691 -178.333999 -0.210355 -179.999991 0.000005 -1.049003 174.777465 -3.449648 -0.514117 0.000003 -0.000002 0.040263 68.831539 6.857230 2.230321 25.456858 -7.355620 -0.000004 1.518606 174.031089 -0.499044 -0.000005 -0.000005 -1.030740 -8.137982 1.364287 0.667905 0.000001 -0.000004 -0.073923 70.340662 -6.376095 -3.418651 25.457158 7.355619 -0.000413 
54.965096 -9.054384 85.658005 -3.591349 1.846080 1.109828 -1.005846 0.201677 -0.169257 1.999999 0.401123 -0.338108 3.645087 0.397041 -0.340811 7.807535 -6.993618 -1.466595 3.892168 3.583916 -0.910699 -6.720730 -64.532761 -8.350588 -47.333054 -114.956988 -42.258862 0.000000 -0.000001 -0.000003 5.047749 -14.851346 0.377614 -0.000008 0.000002 -3.008789 -5.000219 -7.998793 0.000162 4.796142 52.210427 -6.711223 -33.123218 117.728037 29.800826 -0.000002 0.000004 0.000008 4.911368 9.491483 0.170650 -0.000004 -0.000006 3.002320 -5.000209 7.998832 -0.000139 1.972106 -178.338985 -0.215651 -179.999991 0.000005 -1.049003 174.779568 -3.444680 -0.513536 0.000003 -0.000002 0.040263 68.832898 6.857209 2.230333 25.456858 -7.355623 -0.000003 1.520923 174.029095 -0.500067 -0.000005 -0.000005 -1.030740 -8.134306 1.363131 0.666979 0.000001 -0.000004 -0.073923 70.340614 -6.377287 -3.415362 25.457160 7.355620 -0.000414 
54.969097 -9.058876 85.645195 -3.590452 1.848278 1.108699 -1.006126 0.201695 -0.169065 1.998439 0.400597 -0.338188 3.643527 0.396516 -0.340754 7.818240 -6.997999 -1.468851 3.881365 3.589509 -0.913368 -6.722664 -64.536695 -8.353103 -47.361348 -114.944707 -42.251748 0.000001 -0.000001 -0.000002 5.017718 -14.834461 0.371831 -0.000007 0.000002 -3.008789 -5.000220 -7.998792 0.000162 4.807798 52.207343 -6.725831 -33.115598 117.723761 29.772853 -0.000001 0.000004 0.000007 4.896176 9.477376 0.172925 -0.000004 -0.000006 3.002320 -5.000212 7.998832 -0.000139 1.973451 -178.344982 -0.220930 -179.999991 0.000005 -1.049003 174.781768 -3.440720 -0.514039 0.000003 -0.000002 0.040263 68.834271 6.857223 2.230352 25.456861 -7.355622 -0.000003 1.522974 174.026089 -0.501159 -0.000005 -0.000005 -1.030740 -8.131032 1.362173 0.666171 0.000001 -0.000004 -0.073923 70.340744 -6.378392 -3.412347 25.457162 7.355620 -0.000414 
